<svg xmlns="http://www.w3.org/2000/svg" width="512" height="512" viewBox="0 0 512 512" role="img" aria-labelledby="title desc">
  <title id="title">Liora Living monogram</title>
  <desc id="desc">Compact bronze LL monogram for Liora Living.</desc>
  <defs>
    <linearGradient id="bronze" x1="120" x2="410" y1="70" y2="445" gradientUnits="userSpaceOnUse">
      <stop offset="0" stop-color="#c2a46d"/>
      <stop offset="0.48" stop-color="#8f7750"/>
      <stop offset="1" stop-color="#b79a63"/>
    </linearGradient>
    <filter id="softInk" x="-20%" y="-20%" width="140%" height="140%" color-interpolation-filters="sRGB">
      <feDropShadow dx="0" dy="1" stdDeviation="0.55" flood-color="#ffffff" flood-opacity="0.42"/>
      <feDropShadow dx="0" dy="2" stdDeviation="1.4" flood-color="#4a3d29" flood-opacity="0.14"/>
    </filter>
  </defs>
  <g transform="translate(246 248) scale(.92)" fill="url(#bronze)" filter="url(#softInk)">
    <path d="M-116-192c42 0 69 0 103-3v10c-35 4-45 18-45 55v238c0 37 12 51 47 55v10h-141v-10c35-4 47-18 47-55v-238c0-37-10-51-45-55v-10c11 2 22 3 34 3z"/>
    <path d="M6-76c30 0 58-1 86-4v10c-29 4-38 16-38 48v132c0 28 11 42 38 49v10h-124v-10c27-7 38-21 38-49v-132c0-32-9-44-38-48v-10c13 2 25 4 38 4z"/>
    <path d="M-73 147c128 65 307 103 385-15-26 119-178 138-397 34l12-19z"/>
  </g>
</svg>
