<svg xmlns="http://www.w3.org/2000/svg" width="1536" height="1024" viewBox="0 0 1536 1024" role="img" aria-labelledby="title desc">
  <title id="title">Liora Living primary logo</title>
  <desc id="desc">Liora Living logo on a warm off-white background.</desc>
  <defs>
    <radialGradient id="paperGlow" cx="50%" cy="46%" r="76%">
      <stop offset="0" stop-color="#fffdf9"/>
      <stop offset="0.54" stop-color="#faf6ef"/>
      <stop offset="1" stop-color="#f1ebe3"/>
    </radialGradient>
    <linearGradient id="bronze" x1="430" x2="1110" y1="210" y2="875" gradientUnits="userSpaceOnUse">
      <stop offset="0" stop-color="#c2a46d"/>
      <stop offset="0.38" stop-color="#8f7750"/>
      <stop offset="0.72" stop-color="#766342"/>
      <stop offset="1" stop-color="#b79a63"/>
    </linearGradient>
    <filter id="softInk" x="-18%" y="-18%" width="136%" height="136%" color-interpolation-filters="sRGB">
      <feDropShadow dx="0" dy="1" stdDeviation="0.55" flood-color="#ffffff" flood-opacity="0.52"/>
      <feDropShadow dx="0" dy="2.2" stdDeviation="1.4" flood-color="#4a3d29" flood-opacity="0.12"/>
    </filter>
  </defs>

  <rect width="1536" height="1024" fill="url(#paperGlow)"/>
  <rect width="1536" height="1024" fill="#fffaf4" opacity="0.28"/>
  <ellipse cx="768" cy="448" rx="430" ry="300" fill="#efe5d5" opacity="0.18"/>

  <g fill="url(#bronze)" filter="url(#softInk)">
    <g transform="translate(768 350) scale(.88)">
      <path d="M-116-192c42 0 69 0 103-3v10c-35 4-45 18-45 55v238c0 37 12 51 47 55v10h-141v-10c35-4 47-18 47-55v-238c0-37-10-51-45-55v-10c11 2 22 3 34 3z"/>
      <path d="M6-76c30 0 58-1 86-4v10c-29 4-38 16-38 48v132c0 28 11 42 38 49v10h-124v-10c27-7 38-21 38-49v-132c0-32-9-44-38-48v-10c13 2 25 4 38 4z"/>
      <path d="M-73 147c128 65 307 103 385-15-26 119-178 138-397 34l12-19z"/>
    </g>

    <text x="768" y="690"
      text-anchor="middle"
      font-family="Didot, 'Bodoni 72', 'Times New Roman', serif"
      font-size="132"
      font-weight="400"
      textLength="850"
      lengthAdjust="spacing">LIORA</text>

    <line x1="338" y1="768" x2="478" y2="768" stroke="url(#bronze)" stroke-width="1.4"/>
    <line x1="1058" y1="768" x2="1198" y2="768" stroke="url(#bronze)" stroke-width="1.4"/>
    <text x="768" y="792"
      text-anchor="middle"
      font-family="'Avenir Next', Avenir, 'Helvetica Neue', Arial, sans-serif"
      font-size="48"
      font-weight="300"
      textLength="462"
      lengthAdjust="spacing">LIVING</text>

    <text x="768" y="858"
      text-anchor="middle"
      font-family="'Avenir Next', Avenir, 'Helvetica Neue', Arial, sans-serif"
      font-size="24"
      font-weight="400"
      textLength="690"
      lengthAdjust="spacing">NEW DEVELOPMENTS. INSPIRED LIVING.</text>
  </g>
</svg>
